<?xml version="1.0" encoding="utf-8"?>
<!-- Generator: Adobe Illustrator 28.0.0, SVG Export Plug-In . SVG Version: 6.00 Build 0)  -->
<svg version="1.1" id="Layer_1" xmlns="http://www.w3.org/2000/svg" xmlns:xlink="http://www.w3.org/1999/xlink" x="0px" y="0px"
	 viewBox="0 0 200 200" style="enable-background:new 0 0 200 200;" xml:space="preserve">
<style type="text/css">
	.st0{fill:#353A44;}
</style>
<g>
	<path class="st0" d="M100,0C44.8,0,0,44.8,0,100s44.8,100,100,100s100-44.8,100-100S155.2,0,100,0z M140.9,68.2V100v9.1
		c0,1.8-1.1,3.5-2.7,4.2c-0.6,0.3-1.2,0.4-1.8,0.4c-1.1,0-2.3-0.4-3.1-1.2l-11.6-11l-14.3,11.2c-1.4,1.1-3.2,1.3-4.8,0.5
		c-1.6-0.8-2.6-2.3-2.6-4.1v-50H72.7c-2.5,0-4.5,2-4.5,4.5v72.7c0,2.5,2,4.5,4.5,4.5h54.5c2.5,0,4.5-2,4.5-4.5v-6.8
		c0-2.5,2-4.5,4.5-4.5c2.5,0,4.5,2,4.5,4.5v6.8c0,7.5-6.1,13.6-13.6,13.6H72.7c-7.5,0-13.6-6.1-13.6-13.6V63.6
		c0-7.5,6.1-13.6,13.6-13.6h54.5c7.5,0,13.6,6.1,13.6,13.6V68.2z"/>
	<path class="st0" d="M127.3,59.1h-18.2v40.6l10-7.9c1.8-1.4,4.3-1.3,5.9,0.3l6.8,6.4V68.2v-4.5C131.8,61.1,129.8,59.1,127.3,59.1z"
		/>
</g>
</svg>
