<?xml version="1.0" encoding="utf-8"?>
<!-- Generator: Adobe Illustrator 28.0.0, SVG Export Plug-In . SVG Version: 6.00 Build 0)  -->
<svg version="1.1" xmlns="http://www.w3.org/2000/svg" xmlns:xlink="http://www.w3.org/1999/xlink" x="0px" y="0px"
	 viewBox="0 0 100 100" style="enable-background:new 0 0 100 100;" xml:space="preserve">
<style type="text/css">
	.st0{fill:#353A44;}
</style>
<g id="Layer_2">
</g>
<g id="Layer_1">
	<path class="st0" d="M50.2,0C22.5,0,0,22.5,0,50.2c0,27.7,22.5,50.2,50.2,50.2c27.7,0,50.2-22.5,50.2-50.2
		C100.3,22.5,77.9,0,50.2,0z M66.4,60.8c0,1.8-0.9,3.3-2.4,3.8l-5.2,1.9c-5.7,2-11.7,2-17.4,0l-5.2-1.9c-1.4-0.5-2.4-2-2.4-3.8V51
		l11.8,4.3c1.4,0.4,2.8,0.7,4.2,0.7c1.4,0,2.8-0.2,4.2-0.7l12.2-4.4V60.8z M74,43.6L72.8,44v6.3c0.4,0.3,0.6,0.7,0.6,1.2v1.5
		c0,0.6-0.3,1-0.7,1.3l1.1,3.1c0.1,0.4-0.1,0.9-0.5,1l-1.2,0.1c-0.2,0-0.5,0-0.7,0l-1.2-0.1c-0.4-0.1-0.6-0.5-0.5-1l1.1-3.1
		c-0.4-0.2-0.7-0.7-0.7-1.3v-1.5c0-0.5,0.3-1,0.6-1.2v-5.7l-17.8,6.4c-2.1,0.8-4.3,0.8-6.4,0l-20.8-7.5c-1.4-0.5-1.4-3,0-3.5
		l20.7-7.5c2.1-0.8,4.3-0.8,6.4,0l20.8,7.5C75.3,40.6,75.3,43,74,43.6z"/>
</g>
</svg>
