<?xml version="1.0" encoding="utf-8"?>
<!-- Generator: Adobe Illustrator 28.0.0, SVG Export Plug-In . SVG Version: 6.00 Build 0)  -->
<svg version="1.1" id="Layer_1" xmlns="http://www.w3.org/2000/svg" xmlns:xlink="http://www.w3.org/1999/xlink" x="0px" y="0px"
	 viewBox="0 0 800 800" style="enable-background:new 0 0 800 800;" xml:space="preserve">
<style type="text/css">
	.st0{fill:#353A44;}
</style>
<g>
	<polygon class="st0" points="464.7,500 518.6,500 491.7,425.9 	"/>
	<path class="st0" d="M400,0C179.1,0,0,179.1,0,400s179.1,400,400,400s400-179.1,400-400S620.9,0,400,0z M299.9,389.9
		c-22.1,23.4-48,43.5-75.3,58.2l-15.8-29.4c25.3-13.6,49.3-32.5,69.5-54.6c-8.6-11.5-16.3-23.6-23.2-36.3l29.3-15.9
		c4.8,8.7,10,17.2,15.6,25.3c16.7-23.9,27.7-48.6,31.6-70.5H200v-33.4h83.3V200h33.4v33.2H400v33.4h-34.5
		c-3.9,29.3-17.8,61.5-40,92.4c-1.3,1.7-2.5,3.5-3.8,5.2c19.7,21.7,43,40.2,69.1,54.6L374.5,448C346.6,432.6,321.4,413,299.9,389.9z
		 M600,600h-66.6v-33.4h9.4l-12.1-33.2h-77.3v-2.2l-12.9,35.4h9.6V600h-66.8v-33.4H405l66.6-183.3h40.1l66.6,183.3H600V600z"/>
</g>
</svg>
