<?xml version="1.0" encoding="utf-8"?>
<!-- Generator: Adobe Illustrator 28.0.0, SVG Export Plug-In . SVG Version: 6.00 Build 0)  -->
<svg version="1.1" id="Layer_1" xmlns="http://www.w3.org/2000/svg" xmlns:xlink="http://www.w3.org/1999/xlink" x="0px" y="0px"
	 viewBox="0 0 100 100" style="enable-background:new 0 0 100 100;" xml:space="preserve">
<style type="text/css">
	.st0{fill-rule:evenodd;clip-rule:evenodd;fill:#353A44;}
</style>
<path class="st0" d="M50,0C22.4,0,0,22.4,0,50s22.4,50,50,50s50-22.4,50-50S77.6,0,50,0z M60.4,82.4c-1.6,0.3-2.2-0.7-2.2-1.6
	c0-1.1,0.1-4.7,0.1-9.1c0-3.1-1-5.1-2.2-6.2c7.4-0.8,15.1-3.6,15.1-16.4c0-3.6-1.3-6.6-3.4-8.9c0.3-0.8,1.5-4.2-0.3-8.8
	c0,0-2.8-0.9-9.1,3.4c-2.6-0.7-5.5-1.1-8.3-1.1c-2.8,0-5.6,0.4-8.3,1.1c-6.3-4.3-9.1-3.4-9.1-3.4c-1.8,4.6-0.7,8-0.3,8.8
	c-2.1,2.3-3.4,5.3-3.4,8.9c0,12.8,7.7,15.6,15,16.4c-0.9,0.8-1.8,2.3-2.1,4.5c-1.9,0.9-6.7,2.3-9.6-2.8c0,0-1.8-3.2-5.1-3.4
	c0,0-3.2,0-0.2,2c0,0,2.2,1,3.7,4.8c0,0,1.9,5.9,11.1,4c0,2.8,0.1,5.4,0.1,6.2c0,0.9-0.6,1.9-2.2,1.6C26.5,78,17,65.5,17,50.8
	c0-18.4,14.8-33.3,33-33.3c18.2,0,33,14.9,33,33.3C83,65.5,73.5,78,60.4,82.4z"/>
</svg>
