<?xml version="1.0" encoding="utf-8"?>
<!-- Generator: Adobe Illustrator 28.0.0, SVG Export Plug-In . SVG Version: 6.00 Build 0)  -->
<svg version="1.1" id="Layer_1" xmlns="http://www.w3.org/2000/svg" xmlns:xlink="http://www.w3.org/1999/xlink" x="0px" y="0px"
	 viewBox="0 0 100 100" style="enable-background:new 0 0 100 100;" xml:space="preserve">
<style type="text/css">
	.st0{fill:#353A44;}
</style>
<g>
	<path class="st0" d="M70.9,58.3l-4.4-3.1c-0.6-0.4-0.9-1.2-0.7-1.9c0.5-2.2,0.5-4.4,0-6.6c-0.2-0.7,0.1-1.5,0.7-1.9l4.4-3.1
		c0.4-0.3,0.5-0.7,0.2-1.1l-2.4-4.2c-0.2-0.4-0.7-0.5-1.1-0.3l-4.9,2.3c-0.7,0.3-1.5,0.2-2-0.3c-1.7-1.5-3.6-2.6-5.7-3.3
		c-0.7-0.2-1.2-0.9-1.3-1.6l-0.5-5.4c0-0.4-0.4-0.8-0.8-0.8c0,0,0,0,0,0h-4.8c0,0,0,0,0,0c-0.4,0-0.8,0.3-0.8,0.8l-0.5,5.4
		c-0.1,0.7-0.6,1.4-1.3,1.6c-2.1,0.7-4.1,1.8-5.7,3.3c-0.6,0.5-1.3,0.6-2,0.3L32.3,36c-0.4-0.2-0.9,0-1.1,0.3l-2.4,4.2
		c-0.2,0.4-0.1,0.9,0.2,1.1l4.4,3.1c0.6,0.4,0.9,1.2,0.7,1.9c-0.5,2.2-0.5,4.4,0,6.6c0.2,0.7-0.1,1.5-0.7,1.9l-4.4,3.1
		c-0.4,0.3-0.5,0.7-0.2,1.1l2.4,4.2c0.2,0.4,0.7,0.5,1.1,0.3l4.9-2.3c0.2-0.1,0.5-0.2,0.8-0.2c0.4,0,0.9,0.2,1.2,0.5
		c1.7,1.5,3.6,2.6,5.7,3.3c0.7,0.2,1.2,0.9,1.3,1.6l0.5,5.4c0,0.4,0.4,0.8,0.8,0.8c0,0,0,0,0,0h4.8c0,0,0,0,0,0
		c0.4,0,0.8-0.3,0.8-0.8l0.5-5.4c0.1-0.7,0.6-1.4,1.3-1.6c2.1-0.7,4.1-1.8,5.7-3.3c0.6-0.5,1.3-0.6,2-0.3l4.9,2.3
		c0.4,0.2,0.9,0,1.1-0.3l2.4-4.2C71.4,59.1,71.3,58.6,70.9,58.3z M50,61.1c-6.1,0-11.1-5-11.1-11.1c0-6.1,5-11.1,11.1-11.1h0
		c6.1,0,11.1,5,11.1,11.1C61.1,56.1,56.1,61.1,50,61.1z"/>
	<path class="st0" d="M50,42.6c-4.1,0-7.4,3.3-7.4,7.4c0,4.1,3.3,7.4,7.4,7.4c4.1,0,7.4-3.3,7.4-7.4C57.4,45.9,54.1,42.6,50,42.6z"
		/>
	<path class="st0" d="M50,0C22.4,0,0,22.4,0,50s22.4,50,50,50s50-22.4,50-50S77.6,0,50,0z M69.6,52.9l3.5,2.4c1.9,1.3,2.5,4,1.3,6
		L72,65.5c-1.2,2-3.7,2.8-5.8,1.9l-3.9-1.8c-1.5,1.2-3.2,2.2-4.9,2.9l-0.4,4.2c-0.2,2.3-2.2,4.1-4.5,4.1c0,0,0,0,0,0h-4.8
		c0,0,0,0,0,0c-2.3,0-4.3-1.8-4.5-4.1l-0.4-4.2c-1.8-0.7-3.4-1.7-4.9-2.9l-3.9,1.8c-2.1,1-4.7,0.2-5.8-1.9l-2.4-4.2
		c-1.2-2-0.6-4.6,1.3-6l3.5-2.4c-0.3-1.9-0.3-3.8,0-5.7l-3.5-2.4c-1.9-1.3-2.5-4-1.3-6l2.4-4.2c1.2-2,3.7-2.8,5.8-1.9l3.9,1.8
		c1.5-1.2,3.2-2.2,4.9-2.9l0.4-4.2c0.2-2.3,2.2-4.1,4.5-4.1c0,0,0,0,0,0h4.8c0,0,0,0,0,0c2.3,0,4.3,1.8,4.5,4.1l0.4,4.2
		c1.8,0.7,3.4,1.7,4.9,2.9l3.9-1.8c2.1-1,4.7-0.2,5.8,1.9l2.4,4.2c1.2,2,0.6,4.6-1.3,6l-3.5,2.4C69.9,49,69.9,51,69.6,52.9z"/>
</g>
</svg>
