<?xml version="1.0" encoding="utf-8"?>
<!-- Generator: Adobe Illustrator 28.0.0, SVG Export Plug-In . SVG Version: 6.00 Build 0)  -->
<svg version="1.1" id="Layer_1" xmlns="http://www.w3.org/2000/svg" xmlns:xlink="http://www.w3.org/1999/xlink" x="0px" y="0px"
	 viewBox="0 0 200 200" style="enable-background:new 0 0 200 200;" xml:space="preserve">
<style type="text/css">
	.st0{fill:#FFFFFF;}
</style>
<g>
	<g>
		<g>
			<path class="st0" d="M92.3,0.1C83.1,1,76,2.5,68.6,4.9C38.4,14.9,14.7,38.6,4.7,68.7C1.2,79.7-0.1,88-0.1,100.3
				c0,10,0.7,15.9,2.9,24.4c3.5,13.6,10.5,27.6,19.4,38.6c3.6,4.5,10.7,11.5,15.2,15c10.8,8.7,24.6,15.4,37.9,18.8
				c8.6,2.1,14.5,2.9,24.4,2.9c9.4,0,12.5-0.3,20.9-2c14.3-2.9,30.4-10.4,42.1-20c4.7-3.9,11.7-10.9,15.5-15.6
				c8.5-10.6,15.4-24.5,18.7-37.7c8.7-34.5-1.2-70.4-26.3-95.5C155.2,13.7,136.3,4.3,114,0.8C110,0.3,95.7-0.2,92.3,0.1z M92.9,36.7
				v19.3l-2-0.3c-6.6-0.8-11.2-1.5-14.9-2.4c-5-1.1-10.8-2.9-10.8-3.2c0-0.5,3.7-7.1,5.9-10.3c4.8-7.3,12-15.1,18.2-19.9
				c1.7-1.3,3.2-2.4,3.5-2.4C92.7,17.5,92.9,26.1,92.9,36.7z M110.2,19.5c6.3,4.7,13.7,12.8,18.7,20.4c2,3.1,5.8,9.8,5.8,10.3
				c0,0.3-5.9,2-10.8,3.2c-3.8,0.8-8.4,1.5-14.9,2.4l-2,0.3V36.7c0-10.5,0.1-19.2,0.3-19.2C107.5,17.5,108.8,18.4,110.2,19.5z
				 M67.8,20.4c0,0.1-1.2,1.5-2.5,3.2c-3.2,3.9-7.6,10.5-10.7,15.9c-1.3,2.4-2.5,4.5-2.5,4.7c-0.2,0.5-3.5-1.4-8.1-4.3
				c-3.8-2.5-4-2,1.7-6.6c5.9-4.7,12.7-9,18.8-11.7C67.8,20.1,67.8,20.1,67.8,20.4z M138.4,23.2c5.3,2.6,11.9,7,16.5,10.9
				c2,1.6,3.6,3.1,3.8,3.4c0.2,0.2-1.2,1.4-3,2.5c-4.7,3.1-7.9,4.8-8.1,4.3c-0.1-0.3-1.2-2.3-2.5-4.7c-3.1-5.5-6.8-11.1-10.1-15.1
				c-3.5-4.2-3.6-4.3-2.1-3.8C133.7,20.9,136,22,138.4,23.2z M34.4,50.5c1.7,1.1,5,3.2,7.3,4.6c2.4,1.4,4.4,2.5,4.5,2.5
				c0.1,0.1-0.6,2.6-1.4,5.7c-2.1,7.5-3.5,14.2-4.2,21.3c-0.3,3.2-0.7,6.4-0.8,7.1L39.6,93H26.9c-11.4,0-12.7-0.1-12.7-0.6
				c0-0.3,0.3-2.5,0.6-4.8c1.5-10.8,5.1-20.9,10.4-30.1c2.4-4.1,5.7-9.1,6.1-9.1C31.4,48.4,32.8,49.3,34.4,50.5z M171.1,51.8
				c6,8.9,9.8,17.6,12.4,27.7c0.8,3.6,2.2,11.2,2.2,12.9c0,0.5-1.3,0.6-12.7,0.6h-12.7l-0.2-0.9c-0.1-0.5-0.3-2.4-0.4-4.2
				c-0.5-7.4-2.2-16.3-4.8-25.4c-0.8-2.8-1.2-4.9-1-5c0.8-0.3,9.8-5.8,12-7.4c1.4-1,2.5-1.8,2.7-1.8
				C168.6,48.4,169.8,49.9,171.1,51.8z M72.2,66.9c4.3,1,12.8,2.3,18.1,2.8l2.6,0.3v11.5v11.5H73.4H53.9l0.2-1.5
				c1-9.7,2.2-16.7,4.1-23.4c0.7-2.3,1.3-4.3,1.4-4.5c0.1-0.2,2,0.3,4.2,1C65.9,65.4,69.7,66.4,72.2,66.9z M141.7,68.2
				c2.1,7.6,4,18.2,4,22.9v2h-19.4h-19.3V81.5V70l2.6-0.3c9.3-0.8,19.3-2.7,26.4-5.1c2.2-0.7,4.2-1.2,4.2-1
				C140.4,63.7,141,65.8,141.7,68.2z M39.8,108.7c0.1,0.9,0.3,2.9,0.4,4.4c0.7,8.2,3,19.3,5.9,28.2c0.3,0.8-0.1,1-2.8,2.5
				c-2.5,1.4-8.2,5.1-11.4,7.4c-0.6,0.5-0.8,0.3-2.5-2c-5.9-8.2-10.6-18.7-13-28.5c-0.9-3.7-2.2-11.4-2.2-13.1
				c0-0.5,1.3-0.6,12.7-0.6h12.7L39.8,108.7z M92.8,118.6L92.7,130l-3.7,0.3c-7.7,0.6-16.5,2.3-24.8,4.8c-2.5,0.8-4.6,1.4-4.7,1.4
				c-0.1,0-0.7-1.9-1.4-4.2c-1.5-5.3-3.1-12.8-3.6-18.1c-0.3-2.3-0.5-4.7-0.5-5.6l-0.2-1.4h19.5h19.5L92.8,118.6z M145.9,108.6
				c-0.1,0.8-0.3,3.3-0.5,5.6c-0.5,5.1-2,12.6-3.6,18c-0.7,2.2-1.3,4.2-1.3,4.2c-0.1,0-2.2-0.5-4.7-1.3c-8.4-2.5-17.1-4.2-24.9-4.8
				l-3.7-0.3l-0.1-11.4l-0.1-11.4h19.5H146L145.9,108.6z M185.6,107.7c0,1.6-1.4,9.3-2.2,12.9c-2.5,10.2-6.4,18.8-12.4,27.7
				c-1.5,2.3-2.5,3.3-2.8,3.1c-0.3-0.2-2.4-1.6-4.7-3.2c-2.4-1.5-5.6-3.6-7.1-4.4c-1.5-0.8-2.9-1.6-2.9-1.7s0.4-1.5,1-3.2
				c2.2-7,4.1-16.4,4.9-24.2c0.3-2.4,0.5-5.1,0.6-6l0.2-1.6h12.7C184.4,107.1,185.6,107.2,185.6,107.7z M92.9,163.7
				c0,10.7-0.1,19.3-0.3,19.3c-0.8,0-6.9-5.1-10.8-9c-4.7-4.7-7.7-8.5-11.4-14.1c-2.9-4.5-5.9-10.1-5.5-10.3
				c0.6-0.3,8.6-2.5,11.5-3.2c4.4-1,12-2,14.3-2.1h2L92.9,163.7L92.9,163.7z M114.5,145c2.5,0.3,6.1,0.9,8.1,1.4
				c3.6,0.8,11.6,3,12.2,3.4c0.4,0.3-2.6,5.9-5.8,10.7c-5.2,8-12,15.4-18.7,20.4c-1.6,1.2-3.1,2.2-3.2,2.2c-0.1,0-0.3-8.7-0.3-19.3
				v-19.3h1.5C109.3,144.3,112,144.5,114.5,145z M53.9,159.8c2.7,5.1,7.5,12.3,10.9,16.5c1.4,1.8,2.5,3.2,2.2,3.2
				c-1,0-10.4-5.1-14.8-8.1c-4.7-3.1-11.4-8.5-11.4-9.2c0-0.5,9.8-6.7,10.6-6.7C51.6,155.6,52.7,157.5,53.9,159.8z M151.8,157.5
				c4.5,2.7,7.2,4.6,7.2,4.8c0,0.6-6.6,5.9-11.1,9c-4.2,2.8-14.1,8.1-15.1,8.1c-0.3,0,0.8-1.4,2.1-3.1c3.5-4.2,7.4-10.2,10.6-15.9
				c1.4-2.6,2.7-4.7,2.9-4.7C148.6,155.6,150.1,156.5,151.8,157.5z"/>
		</g>
	</g>
</g>
</svg>
