<?xml version="1.0" encoding="utf-8"?>
<!-- Generator: Adobe Illustrator 28.0.0, SVG Export Plug-In . SVG Version: 6.00 Build 0)  -->
<svg version="1.1"
	 id="Layer_1" xmlns:inkscape="http://www.inkscape.org/namespaces/inkscape" xmlns:sodipodi="http://sodipodi.sourceforge.net/DTD/sodipodi-0.dtd" xmlns:rdf="http://www.w3.org/1999/02/22-rdf-syntax-ns#" xmlns:cc="http://creativecommons.org/ns#" xmlns:dc="http://purl.org/dc/elements/1.1/" xmlns:svg="http://www.w3.org/2000/svg"
	 xmlns="http://www.w3.org/2000/svg" xmlns:xlink="http://www.w3.org/1999/xlink" x="0px" y="0px" viewBox="0 0 100 100"
	 style="enable-background:new 0 0 100 100;" xml:space="preserve">
<style type="text/css">
	.st0{fill:#353A44;}
</style>
<g>
	<path class="st0" d="M50.6,51.7c0.3,0,0.6-0.2,0.6-0.6v-4.4c0-0.3-0.2-0.6-0.6-0.6h-1.1c-0.3,0-0.6,0.2-0.6,0.6v4.4
		c0,0.3,0.2,0.6,0.6,0.6H50.6z"/>
	<path class="st0" d="M56.7,33.3c0-0.3,0-0.2-0.2-0.3s-0.7-0.2-0.9-0.2H44.4c-0.3,0-0.7,0.1-0.9,0.2c-0.2,0.1-0.2,0.1-0.2,0.3v2.8
		h13.3V33.3z"/>
	<path class="st0" d="M54.4,50.6v0.6c0,2.1-1.8,3.9-3.9,3.9h-1.1c-2.1,0-3.9-1.8-3.9-3.9v-0.6H32.2c-1.4,0-2.8-0.2-3.9-0.6v13.4
		c0,2.2,1.7,3.9,3.9,3.9h35.6c2.2,0,3.9-1.7,3.9-3.9V50c-1.1,0.4-2.4,0.6-3.9,0.6H54.4z"/>
	<path class="st0" d="M50,0C22.4,0,0,22.4,0,50s22.4,50,50,50s50-22.4,50-50S77.6,0,50,0z M75,37.8v8.9v16.7c0,4-3.2,7.2-7.2,7.2
		H32.2c-4,0-7.2-3.2-7.2-7.2V46.7v-8.9c0-0.9,0.6-1.6,1.5-1.7c0.1,0,0.1,0,0.2,0H40v-2.8c0-1.4,0.8-2.6,1.8-3.2
		c0.9-0.6,1.9-0.7,2.7-0.7v0h11.1c0.8,0,1.8,0.2,2.7,0.7c0.9,0.6,1.8,1.8,1.8,3.2v2.8h13.3c0,0,0.1,0,0.1,0c0.1,0,0.2,0,0.3,0.1
		c0.7,0.2,1.1,0.8,1.2,1.4C75,37.7,75,37.7,75,37.8z"/>
	<path class="st0" d="M28.3,39.4v6.9c0.1,0.1,0.3,0.2,0.6,0.3c0.7,0.3,2,0.6,3.3,0.6h13.3v-0.6c0-2.1,1.8-3.9,3.9-3.9h1.1
		c2.1,0,3.9,1.8,3.9,3.9v0.6h13.3c1.3,0,2.6-0.3,3.3-0.6c0.3-0.1,0.5-0.3,0.6-0.3v-6.9H41.5H28.3z"/>
</g>
</svg>
